<?xml version="1.0" encoding="iso-8859-1"?>
<!-- Generator: Adobe Illustrator 19.0.0, SVG Export Plug-In . SVG Version: 6.00 Build 0)  -->
<svg version="1.1" id="Capa_1" xmlns="http://www.w3.org/2000/svg" xmlns:xlink="http://www.w3.org/1999/xlink" x="0px" y="0px"
	 viewBox="0 0 360 360" style="enable-background:new 0 0 360 360;" xml:space="preserve">
<path id="XMLID_16_" d="M205,25C119.533,25,50,94.533,50,180c0,40.473,15.599,77.365,41.092,105H0v50h210v-0.089
	c83.162-2.65,150-71.117,150-154.911C360,94.533,290.467,25,205,25z M116.731,217.83c-20.893,0-37.83-16.937-37.83-37.83
	s16.937-37.83,37.83-37.83s37.83,16.937,37.83,37.83S137.624,217.83,116.731,217.83z M205,306.099
	c-20.893,0-37.83-16.937-37.83-37.83s16.937-37.83,37.83-37.83s37.83,16.937,37.83,37.83S225.893,306.099,205,306.099z M205,129.56
	c-20.893,0-37.83-16.937-37.83-37.83c0-20.893,16.937-37.83,37.83-37.83s37.83,16.937,37.83,37.83
	C242.83,112.623,225.893,129.56,205,129.56z M293.269,217.83c-20.893,0-37.83-16.937-37.83-37.83s16.937-37.83,37.83-37.83
	s37.83,16.937,37.83,37.83S314.162,217.83,293.269,217.83z"/>
<g>
</g>
<g>
</g>
<g>
</g>
<g>
</g>
<g>
</g>
<g>
</g>
<g>
</g>
<g>
</g>
<g>
</g>
<g>
</g>
<g>
</g>
<g>
</g>
<g>
</g>
<g>
</g>
<g>
</g>
</svg>
