<?xml version="1.0" encoding="utf-8"?>
<!-- Svg Vector Icons : http://www.onlinewebfonts.com/icon -->
<!DOCTYPE svg PUBLIC "-//W3C//DTD SVG 1.1//EN" "http://www.w3.org/Graphics/SVG/1.1/DTD/svg11.dtd">
<svg version="1.1" xmlns="http://www.w3.org/2000/svg" xmlns:xlink="http://www.w3.org/1999/xlink" x="0px" y="0px" viewBox="0 0 1000 1000" enable-background="new 0 0 1000 1000" xml:space="preserve">
<metadata> Svg Vector Icons : http://www.onlinewebfonts.com/icon </metadata>
<g><g transform="translate(0.000000,128.000000) scale(0.100000,-0.100000)"><path d="M3784,1023.8C1990.5,556.3,603.3-892.3,197.1-2701c-91.9-436.8-115-781.7-84.3-1325.8C189.4-5276.2,634-6272.5,1546-7184.5c1011.7-1019.3,2291.6-1509.9,3747.7-1425.6c1295.3,69,2199.6,482.9,3150,1433.2C9455.5-6165.2,9900-5122.9,9900-3728C9907.6-547.4,6841.9,1820.9,3784,1023.8z M5201.8-194.8l1103.6-436.9L5531.4-1697c-429.2-590.2-804.7-1103.6-835.4-1134.3c-38.3-38.3-122.6,176.3-199.3,475.2c-76.6,314.2-168.6,544.2-229.9,544.2c-161,0-720.4-452.2-950.4-774.1C2488.7-3720.3,3170.8-5414.1,4581-5728.3C6366.7-6126.9,7746.3-3996.2,6635-2540c-145.6,191.6-260.5,375.5-260.5,406.2c7.6,30.7,176.3,245.3,390.8,475.2l383.2,421.5l298.9-337.2c858.4-942.7,1065.3-2421.9,498.2-3579.2c-620.8-1272.3-2069.3-2038.7-3425.9-1808.8C3784-6832,3193.8-6533.1,2688-6034.9c-751.1,758.7-1103.6,1831.7-919.7,2820.4c191.6,1057.6,797.1,1893,1670.8,2329.9c291.2,145.6,536.5,268.3,551.8,275.9c30.7,15.3-107.3,597.8-191.6,827.7C3730.3,380,3730.3,387.7,5201.8-194.8z"/></g></g>
</svg>