<svg width="350" height="350" xmlns="http://www.w3.org/2000/svg">
 <!-- Created with SVG Editor - http://github.com/mzalive/SVG Editor/ -->

 <g>
  <title>background</title>
  <rect height="352" width="352" y="-1" x="-1" fill="none" id="canvas_background"/>
 </g>
 <g>
  <title>Layer 1</title>
  <path fill="#000000" stroke-width="4" stroke-opacity="null" fill-opacity="null" d="m180.01401,376.18149l0,0c-85.20313,0 -154.28761,-67.03918 -154.28761,-149.76252c0,-82.71274 69.08448,-149.76252 154.28761,-149.76252l0,0c-48.55731,35.35294 -77.13851,90.84095 -77.13851,149.76252s28.5812,114.39898 77.13851,149.76252z" id="svg_1" transform="rotate(-35.40729904174805 102.87020874023447,226.41896057128906) " stroke="#000"/>
  <!-- Created with SVG Editor - http://github.com/mzalive/SVG Editor/ -->
  <g stroke="null" id="svg_11">
   <g stroke="null" transform="matrix(0.8099747249518269,0,0,0.8099747249518269,-1022.2505280885314,-1181.6300278124806) " id="svg_9">
    <title stroke="null" transform="translate(3.7038192749023438,-17.28449058532715) translate(-41.30935287475586,64.10072326660156) translate(1399.9998779296875,0) translate(0,1399.9998779296875) ">background</title>
    <rect stroke="null" height="352" width="352" y="1445.816111" x="1361.394344" fill="none" id="svg_7"/>
   </g>
   <g stroke="null" transform="matrix(0.8099747249518269,0,0,0.8099747249518269,-1022.2505280885314,-1181.6300278124806) " id="svg_10">
    <title stroke="null" transform="translate(3.7038192749023438,-17.28449058532715) translate(-41.30935287475586,64.10072326660156) translate(1399.9998779296875,0) translate(0,1399.9998779296875) ">Layer 1</title>
    <path stroke="#000" fill="#000000" stroke-width="4" stroke-opacity="null" fill-opacity="null" d="m1538.904354,1541.854331c-43.35453,0 -78.46671,35.11218 -78.46671,78.4667c0,43.32463 35.11218,78.45674 78.46671,78.45674c43.31466,0 78.44677,-35.13211 78.44677,-78.45674c0.00997,-43.35452 -35.11218,-78.4667 -78.44677,-78.4667zm0,137.0003c-32.33151,-0.07974 -58.46383,-26.21205 -58.54356,-58.52363c0.06977,-32.32155 26.21205,-58.46383 58.54356,-58.54356c32.31158,0.07973 58.44389,26.22201 58.51366,58.54356c-0.06977,32.31158 -26.20208,58.44389 -58.51366,58.52363zm0,-142.25268c5.51151,0 9.96656,-4.46502 9.96656,-9.97652l0,-48.34777c-0.01994,-5.51151 -4.46502,-9.96656 -9.96656,-9.96656c-5.51151,0 -9.97652,4.47498 -9.96656,9.98649l0,48.3378c0,5.49158 4.45505,9.96656 9.96656,9.96656zm32.02255,6.35866c1.24582,0.52823 2.54147,0.75746 3.80722,0.76743c3.92683,0 7.62442,-2.32221 9.21907,-6.15933l18.49793,-44.68008c2.09298,-5.09291 -0.30896,-10.91338 -5.39191,-13.01632c-5.09291,-2.10295 -10.92334,0.30896 -13.03625,5.3919l-18.48797,44.69005c-2.10294,5.08294 0.30896,10.91338 5.39191,13.00636l0,-0.00001zm27.15887,18.14911c1.94348,1.93351 4.49491,2.9202 7.04635,2.9202s5.10288,-0.97673 7.04636,-2.9202l34.18529,-34.2152c3.89693,-3.88695 3.88696,-10.19578 0,-14.10268c-3.90689,-3.88695 -10.21572,-3.88695 -14.10268,0.01994l-34.17532,34.19526c-3.89693,3.89692 -3.89693,10.20575 0,14.10268zm18.16903,27.1489c1.57472,3.83712 5.29224,6.14936 9.19914,6.14936c1.26575,0 2.5614,-0.24916 3.81719,-0.77739l44.65017,-18.50789c5.09292,-2.10295 7.50482,-7.94335 5.39191,-13.0263s-7.93338,-7.49485 -13.02629,-5.38194l-44.66014,18.5079c-5.08295,2.11291 -7.48489,7.95331 -5.37198,13.03626zm64.67299,22.03606l-48.34777,0.00996c-5.50154,0 -9.96655,4.46502 -9.94662,9.97653c0,5.5115 4.45505,9.95659 9.94662,9.95659l48.35774,-0.01993c5.51151,0 9.95659,-4.47499 9.95659,-9.96656c0,-5.51151 -4.46502,-9.97653 -9.96655,-9.95659l-0.00001,0zm-6.95665,55.09513l-44.67011,-18.478c-5.10288,-2.11291 -10.93332,0.299 -13.0263,5.39191c-2.10294,5.09291 0.30897,10.92334 5.39191,13.03625l44.67011,18.478c1.25579,0.5083 2.55144,0.74749 3.8172,0.74749c3.91685,0 7.62441,-2.31224 9.21906,-6.14936c2.09298,-5.09291 -0.32889,-10.93332 -5.40187,-13.02629zm-61.73286,14.08274c-3.89692,-3.89692 -10.19579,-3.89692 -14.09271,0.00997c-3.89693,3.88696 -3.88696,10.18582 0,14.08275l34.22516,34.17532c1.94348,1.94348 4.48495,2.9202 7.03639,2.9202s5.11284,-0.97672 7.05632,-2.9202c3.89692,-3.90689 3.87699,-10.21572 0,-14.10268l-34.22516,-34.16536zm-28.21532,23.55098c-2.10295,-5.09291 -7.93338,-7.49485 -13.02629,-5.39191c-5.08295,2.11291 -7.49486,7.94335 -5.38195,13.03626l18.5378,44.65017c1.58468,3.83713 5.29224,6.14937 9.21907,6.14937c1.27572,0 2.57137,-0.2392 3.81719,-0.75746c5.09291,-2.10294 7.49485,-7.94334 5.38194,-13.04622l-18.54776,-44.64021zm-45.01894,1.02655c-5.51151,0 -9.96656,4.46502 -9.96656,9.96656l0.03986,48.34777c0,5.51151 4.47499,9.95659 9.96656,9.95659c5.51151,0 9.96656,-4.46502 9.94663,-9.96656l-0.0299,-48.35773c0,-5.48161 -4.47499,-9.95659 -9.9566,-9.94663l0.00001,0zm-32.05245,-6.33873c-5.08295,-2.09298 -10.90342,0.30896 -13.01633,5.41184l-18.45806,44.68008c-2.09298,5.09291 0.32889,10.92335 5.41184,13.02629c1.24582,0.51826 2.53151,0.75746 3.80722,0.75746c3.9069,0 7.62442,-2.33218 9.2091,-6.1693l18.46803,-44.70001c2.10295,-5.08294 -0.32889,-10.90341 -5.4218,-13.00636zm-27.16884,-18.10923c-3.90689,-3.89693 -10.21572,-3.87699 -14.10268,0.01993l-34.14542,34.21519c-3.89693,3.90689 -3.877,10.19579 0.01993,14.10268c1.94348,1.93351 4.48495,2.91024 7.03639,2.91024c2.5614,0 5.11284,-0.97673 7.05632,-2.92021l34.15539,-34.22515c3.877,-3.89693 3.877,-10.20576 -0.01993,-14.10268zm-18.179,-27.11901c-2.12288,-5.07297 -7.94335,-7.48488 -13.02629,-5.38194l-44.64021,18.54777c-5.09291,2.11291 -7.49485,7.95331 -5.38194,13.03625c1.59465,3.83713 5.29224,6.1394 9.2091,6.1394c1.26575,0 2.57137,-0.2392 3.81719,-0.75746l44.64021,-18.54776c5.07298,-2.13284 7.48488,-7.96328 5.38194,-13.03626zm-6.4384,-32.01258c0,-5.51151 -4.45505,-9.95659 -9.96655,-9.95659l-48.34777,0.0598c-5.51151,0 -9.97653,4.46502 -9.95659,9.97652c0.00996,5.49158 4.47498,9.96656 9.96655,9.94663l48.35774,-0.0598c5.50154,0 9.96656,-4.48495 9.94662,-9.96656zm-51.38757,-45.07874l44.70001,18.43813c1.24582,0.52823 2.53151,0.75746 3.79726,0.75746c3.91686,0 7.63438,-2.31224 9.21907,-6.15933c2.11291,-5.09291 -0.31893,-10.93332 -5.42181,-13.01633l-44.68008,-18.43813c-5.09291,-2.09298 -10.91338,0.31893 -13.01632,5.40188c-2.11291,5.09291 0.3289,10.90341 5.40187,13.01632zm61.72289,-14.13258c1.94348,1.92355 4.47499,2.90027 7.02643,2.90027s5.11284,-0.97672 7.06629,-2.94013c3.89692,-3.877 3.87699,-10.19579 -0.03987,-14.09272l-34.22516,-34.12549c-3.88695,-3.88696 -10.21572,-3.86702 -14.09271,0.0299c-3.89692,3.88696 -3.87699,10.20576 0.01993,14.09271l34.2451,34.13546l-0.00001,0zm28.17546,-23.59084c1.59465,3.82716 5.30221,6.12943 9.19914,6.12943c1.27571,0 2.57137,-0.24916 3.82715,-0.76742c5.08295,-2.11291 7.50482,-7.95332 5.38194,-13.02629l-18.57766,-44.64021c-2.11291,-5.08295 -7.95331,-7.48489 -13.03626,-5.37198c-5.08294,2.12288 -7.48488,7.96328 -5.37197,13.03626l18.57766,44.64021z" id="svg_6"/>
   </g>
  </g>
 </g>
</svg>