<svg width="350" height="350" xmlns="http://www.w3.org/2000/svg">
 <!-- Created with SVG Editor - http://github.com/mzalive/SVG Editor/ -->

 <g>
  <title>background</title>
  <rect id="canvas_background" fill="none" x="-1" y="-1" width="352" height="352"/>
 </g>
 <g>
  <title>Layer 1</title>
  <g stroke="null" id="svg_6">
   <path stroke="null" id="svg_5" d="m281.303249,33.26232l-47.245892,0c0,-12.99262 -10.630326,-23.622946 -23.622946,-23.622946l-70.868838,0c-12.99262,0 -23.622946,10.630326 -23.622946,23.622946l-47.245892,0c-12.99262,0 -23.622946,10.630326 -23.622946,23.622946l0,23.622946c0,12.99262 10.630326,23.622946 23.622946,23.622946l0,212.606514c0,12.99262 10.630326,23.622946 23.622946,23.622946l165.360622,0c12.99262,0 23.622946,-10.630326 23.622946,-23.622946l0,-212.606514c12.99262,0 23.622946,-10.630326 23.622946,-23.622946l0,-23.622946c0,-12.99262 -10.630326,-23.622946 -23.622946,-23.622946zm-23.622946,283.475352l-165.360622,0l0,-212.606514l23.622946,0l0,188.983568l23.622946,0l0,-188.983568l23.622946,0l0,188.983568l23.622946,0l0,-188.983568l23.622946,0l0,188.983568l23.622946,0l0,-188.983568l23.622946,0l0,212.606514zm23.622946,-236.22946l-212.606514,0l0,-23.622946l212.606514,0l0,23.622946z" fill-rule="evenodd"/>
  </g>
 </g>
</svg>