<svg width="350" height="350" xmlns="http://www.w3.org/2000/svg">
 <!-- Created with SVG Editor - http://github.com/mzalive/SVG Editor/ -->

 <g>
  <title>background</title>
  <rect height="352" width="352" y="-1" x="-1" fill="none" id="canvas_background"/>
 </g>
 <g>
  <title>Layer 1</title>
  <g stroke="null" id="svg_7">
   <path stroke="null" id="svg_6" d="m292.228979,54.083119c-30.675192,-33.008431 -73.123026,-50.795357 -117.228978,-50.111245c-44.105952,-0.684113 -86.387974,17.102814 -117.063166,50.111245c-32.167499,31.640206 -49.411931,75.423409 -48.748684,120.916894c-0.663247,45.493485 16.581185,89.10566 48.582872,120.745866c30.675192,33.179459 73.123026,50.966385 117.228978,50.282273c44.105952,0.684113 86.387974,-17.102814 117.063166,-50.111245c32.167499,-31.640206 49.411931,-75.423409 48.748684,-120.916894c0.663247,-45.493485 -16.581185,-89.276689 -48.582872,-120.916894m-34.323053,120.916894l0,102.616883l-58.034147,0l0,-85.514069l-49.743555,0l0,85.514069l-58.034147,0l0,-102.616883l-33.16237,0l116.068295,-119.719697l124.358887,119.719697l-41.452962,0z"/>
  </g>
 </g>
</svg>