<?xml version="1.0" encoding="utf-8"?>
<!-- Svg Vector Icons : http://www.onlinewebfonts.com/icon -->
<!DOCTYPE svg PUBLIC "-//W3C//DTD SVG 1.1//EN" "http://www.w3.org/Graphics/SVG/1.1/DTD/svg11.dtd">
<svg version="1.1" xmlns="http://www.w3.org/2000/svg" xmlns:xlink="http://www.w3.org/1999/xlink" x="0px" y="0px" viewBox="0 0 1000 1000" enable-background="new 0 0 1000 1000" xml:space="preserve">
<metadata> Svg Vector Icons : http://www.onlinewebfonts.com/icon </metadata>
<g><path d="M159.6,10C76.8,10,10,80.2,10,166.4v667.2C10,919.8,76.8,990,159.6,990h363.1c82.8,0,149.6-70.2,149.6-156.4V643v-13.4h-13.4h-90.8h-13.4V643v190.6c0,19-14.5,34.2-32,34.2H159.6c-17.5,0-32-15.2-32-34.2V166.4c0-19,14.5-34.2,32-34.2h363.1c17.5,0,32,15.2,32,34.2V357v13.4h13.4h90.8h13.4V357V166.4C672.3,80.2,605.5,10,522.7,10H159.6L159.6,10z M740.4,378.7l91.1,91.1l9.5-22.9H354.4l-5.5,1.2c-5.7,2.6-13.9,7-22.2,13c-15.6,11.3-25.4,23.8-25.4,39c0,29.3,23.8,53.1,53.1,53.1H841l-9.5-22.9l-91.1,91.1c-20.8,20.8-20.8,54.4,0,75.1c20.7,20.7,54.4,20.7,75.1,0l158.9-158.9c10-10,15.6-23.5,15.6-37.6c0-14.1-5.6-27.6-15.6-37.6L815.6,303.6c-20.7-20.8-54.4-20.8-75.1,0C719.7,324.3,719.7,358,740.4,378.7L740.4,378.7z"/></g>
</svg>