<svg width="350" height="350" xmlns="http://www.w3.org/2000/svg">
 <!-- Created with SVG Editor - http://github.com/mzalive/SVG Editor/ -->

 <g>
  <title>background</title>
  <rect id="canvas_background" fill="none" x="-1" y="-1" width="352" height="352"/>
 </g>
 <g>
  <title>Layer 1</title>
  <path stroke="#000" id="svg_3" d="m344.987399,120.960722c-0.050486,-27.86844 -22.617865,-50.44844 -50.473683,-50.486305l0,-0.012622l-154.70266,0c-6.373896,-20.472197 -25.38199,-35.441386 -48.025098,-35.479251l-36.287032,0c-27.86844,0.025243 -50.44844,22.617865 -50.498927,50.486305l0,179.074924c0.050486,27.843197 22.630486,50.423197 50.498927,50.473683l239.027411,0c27.830576,-0.050486 50.423197,-22.630486 50.473683,-50.473683l0,-143.583051l-0.012622,0zm-289.488473,-60.747646l36.287032,0c13.202169,-0.050486 24.195562,10.526395 25.028586,23.678077l0.732051,11.826417l176.979742,0c13.795383,0.025243 25.205288,11.435148 25.230531,25.243153l0,6.24768c-7.459352,-4.354444 -16.004159,-7.030218 -25.243153,-7.04284l-239.027411,0c-9.238994,0.012622 -17.796423,2.701017 -25.243153,7.055461l0,-41.764796c0.037865,-13.808004 11.44777,-25.217909 25.255774,-25.243153zm239.014789,229.561229l-239.014789,0c-13.795383,-0.025243 -25.205288,-11.460391 -25.255774,-25.243153l0,-93.879284l0.012622,0c0.025243,-13.820626 11.435148,-25.230531 25.243153,-25.255774l239.027411,0c13.795383,0.025243 25.129558,11.37204 25.243153,25.129558l0,93.992878c-0.050486,13.820626 -11.460391,25.230531 -25.255774,25.255774z" stroke-opacity="null" stroke-width="0" fill="#000000"/>
 </g>
</svg>