<svg width="350" height="350" xmlns="http://www.w3.org/2000/svg">
 <!-- Created with SVG Editor - http://github.com/mzalive/SVG Editor/ -->

 <g>
  <title>background</title>
  <rect id="canvas_background" fill="none" x="-1" y="-1" width="352" height="352"/>
 </g>
 <g>
  <title>Layer 1</title>
  <path stroke="#000" id="svg_6" d="m6.999985,36.032881l0,277.934233l336.000013,0l0,-277.934233l-336.000013,0zm283.111122,254.078232l-230.222231,0l0,-230.222231l230.222231,0l0,230.222231zm-174.222229,-140.000005c17.745778,0 32.144001,-14.398223 32.144001,-32.144001c0,-17.758223 -14.398223,-32.144001 -32.144001,-32.144001c-17.758223,0 -32.144001,14.398223 -32.144001,32.144001c0,17.745778 14.385778,32.144001 32.144001,32.144001zm161.790228,28.000001l-61.189336,-61.189336l-86.078225,86.078225l-23.856001,-23.856001l-34.247112,34.247112l0,64.275558l205.370674,0l0,-99.555559z" fill-opacity="null" stroke-opacity="null" stroke-width="0" fill="#000000"/>
 </g>
</svg>