<svg width="350" height="350" xmlns="http://www.w3.org/2000/svg">
 <!-- Created with SVG Editor - http://github.com/mzalive/SVG Editor/ -->

 <g>
  <title>background</title>
  <rect height="352" width="352" y="-1" x="-1" fill="none" id="canvas_background"/>
 </g>
 <g>
  <title>Layer 1</title>
  <path fill="#000000" stroke-width="0" stroke-opacity="null" d="m255.71994,46.010698c-21.982445,-21.352214 -45.691722,-38.456674 -65.140639,-40.788527c-1.058787,-0.151255 -2.155389,-0.239488 -3.315013,-0.264697l-127.999844,0c-2.041947,0 -4.058685,0.794091 -5.495611,2.26883c-1.424321,1.436926 -2.26883,3.453664 -2.26883,5.508216l0,324.568782c0,2.041947 0.794091,3.995662 2.26883,5.483007c1.47474,1.462135 3.41585,2.256226 5.495611,2.256226l231.471111,0c2.041947,0 3.995662,-0.781486 5.470402,-2.256226c1.47474,-1.47474 2.29404,-3.428455 2.29404,-5.483007l0,-215.980042c-0.453766,-25.070575 -20.091753,-52.40998 -42.780056,-75.312562l-0.000001,0zm27.225964,283.490348l-215.942228,0l0,-309.039899l120.273216,0l0,0.025209c5.243519,-0.315115 9.768575,4.865381 13.234844,16.713717c3.151153,11.281129 3.945244,25.990712 3.932639,36.187844c0.025209,7.474535 -0.340325,12.491171 -0.340325,12.491171l-0.617626,8.218208l8.268626,0.088232c0.037814,0 19.108593,0.226883 37.813839,4.474638c17.974178,3.882221 32.028321,11.621453 33.339201,20.381659c0.050418,0.781486 0.063023,1.562972 0.050418,2.29404l0,208.165182l-0.012605,0l0.000001,-0.000001z" id="svg_2" stroke="#000"/>
  <path id="svg_4" d="m101.632836,299.511449c-9.955409,-1.80037 -13.388334,-14.377477 -7.452953,-21.912539c7.877001,-11.653487 24.726665,-19.50941 37.928574,-12.156351c0.263081,-41.171599 0.111295,-82.345459 0.151508,-123.51807c32.917436,-6.512013 65.909298,-12.660494 98.838241,-19.118603c-0.07133,45.992956 -0.14263,91.985913 -0.213941,137.978869c-5.158947,13.911026 -21.828662,23.557476 -36.343756,19.24389c-8.641567,-2.586771 -10.713275,-13.741104 -5.901293,-20.575512c6.58954,-10.194819 18.854315,-17.194456 31.184365,-15.284857c3.518655,-0.355944 8.700141,5.340718 7.212915,-1.103665c-0.122144,-36.378428 0.303786,-72.766551 -0.314286,-109.13732c-5.372113,-1.994435 -14.925925,2.594336 -21.804305,2.965592c-23.00162,4.476606 -46.052414,8.715992 -69.001207,13.454277c0.692432,40.308571 0.369546,80.641817 0.266461,120.958911c1.21838,9.203284 -3.854167,17.872634 -11.567017,22.670115c-6.655614,4.841322 -14.878596,6.586545 -22.9833,5.535281l-0.000006,-0.000018z" stroke-opacity="null" stroke-width="10" stroke="#000" fill="#000000"/>
 </g>
</svg>