<?xml version="1.0" encoding="utf-8"?>
<!-- Svg Vector Icons : http://www.onlinewebfonts.com/icon -->
<!DOCTYPE svg PUBLIC "-//W3C//DTD SVG 1.1//EN" "http://www.w3.org/Graphics/SVG/1.1/DTD/svg11.dtd">
<svg version="1.1" xmlns="http://www.w3.org/2000/svg" xmlns:xlink="http://www.w3.org/1999/xlink" x="0px" y="0px" viewBox="0 0 1000 1000" enable-background="new 0 0 1000 1000" xml:space="preserve">
<metadata> Svg Vector Icons : http://www.onlinewebfonts.com/icon </metadata>
<g><path d="M829.2,67.8C742.5,30.5,625.6,10,500,10c-125.6,0-242.5,20.5-329.2,57.8C81.9,106,32.9,158.3,32.9,215.2v569.6c0,56.9,49,109.2,137.8,147.4C257.5,969.5,374.4,990,500,990c125.6,0,242.5-20.5,329.2-57.8C918.1,894,967,841.7,967.1,784.8V215.2C967,158.3,918.1,106,829.2,67.8z M777.2,318.2c-77.3,26.5-181,42.4-277.2,42.4c-97.7,0-198.8-15.4-277.3-42.4c-82.5-28.3-127.9-64.9-127.9-103c0-38.1,45.4-74.7,127.9-103C301.2,85.3,402.3,69.8,500,69.8c96.3,0,199.9,15.8,277.2,42.4c82.5,28.3,127.9,64.9,127.9,103C905.1,253.3,859.7,289.9,777.2,318.2z M777.2,493.5c-77.3,26.5-181,42.4-277.2,42.4c-97.7,0-198.8-15.4-277.3-42.4c-82.5-28.3-127.9-64.9-127.9-103v-70.9c39.3,30.1,96,55.2,164.6,72.7c71.8,18.4,155,28.1,240.6,28.1c85.6,0,168.7-9.7,240.5-28.1c68.6-17.6,125.3-42.6,164.6-72.7v70.9C905.1,428.6,859.7,465.2,777.2,493.5z M777.2,690.6C699.9,717.2,596.3,733,500,733c-97.7,0-198.8-15.4-277.3-42.4c-82.5-28.3-127.9-64.9-127.9-103v-92.8c39.3,30.1,96,55.2,164.6,72.7c71.8,18.4,155,28.1,240.5,28.1c85.6,0,168.7-9.7,240.5-28.1c68.6-17.6,125.3-42.6,164.6-72.7v92.8C905.1,625.8,859.7,662.4,777.2,690.6z M500,930.2c-97.7,0-198.8-15.4-277.3-42.4c-82.5-28.3-127.9-64.9-127.9-103V692c39.3,30.1,96,55.2,164.6,72.7c71.8,18.4,155,28.1,240.5,28.1c85.6,0,168.7-9.7,240.5-28.1c68.6-17.6,125.3-42.6,164.6-72.7v92.8c0,38.1-45.4,74.7-127.9,103C699.9,914.3,596.3,930.2,500,930.2z"/></g>
</svg>