<svg width="350" height="350" xmlns="http://www.w3.org/2000/svg">
 <!-- Created with SVG Editor - http://github.com/mzalive/SVG Editor/ -->

 <g>
  <title>background</title>
  <rect id="canvas_background" fill="none" x="-1" y="-1" width="352" height="352"/>
 </g>
 <g>
  <title>Layer 1</title>
  <path stroke="#000" id="svg_2" d="m335.345326,280.683526l-44.000401,-76.19281c-13.265959,-22.964313 -34.964252,-60.55872 -48.23029,-83.527475l-43.996289,-76.188183c-13.279125,-22.977784 -34.977405,-22.977784 -48.238962,0l-43.987379,76.188183c-13.265959,22.968755 -34.977471,60.571913 -48.239054,83.527475l-43.991861,76.19281c-13.265932,22.986469 -2.407896,41.774749 24.11958,41.774749l272.418769,0c26.553968,0 37.39856,-18.788294 24.145874,-41.774749l0.000013,0zm-147.782438,11.795234l-26.096506,0l0,-25.05231l26.096506,0l0,25.05231zm-1.257269,-43.51182l-23.559694,0l-2.341349,-107.189593l28.03347,0l-2.132414,107.189593l-0.000013,0z" stroke-opacity="null" stroke-width="0" fill="#000000"/>
 </g>
</svg>