<svg fill="#000000" xmlns="http://www.w3.org/2000/svg" viewBox="0 0 50 50" width="50px" height="50px"><path d="M 0.71875 1 C 0.332031 1.0625 0.0195313 1.339844 -0.0898438 1.714844 C -0.195313 2.089844 -0.0742188 2.496094 0.21875 2.75 C 0.476563 3.515625 1 5.507813 1 8.6875 C 1 10.65625 0.746094 11.894531 0.53125 12.59375 C 0.429688 12.929688 0.34375 13.128906 0.28125 13.25 C 0.183594 13.359375 0.105469 13.484375 0.0625 13.625 C 0.0351563 13.683594 0.015625 13.75 0 13.8125 C -0.0351563 14.003906 -0.0117188 14.199219 0.0625 14.375 C 0.0820313 14.417969 0.101563 14.460938 0.125 14.5 C 0.25 14.816406 1 16.875 1 20.6875 C 1 22.65625 0.746094 23.894531 0.53125 24.59375 C 0.429688 24.929688 0.34375 25.128906 0.28125 25.25 C 0.183594 25.359375 0.105469 25.484375 0.0625 25.625 C 0.0351563 25.683594 0.015625 25.75 0 25.8125 C -0.0351563 26.003906 -0.0117188 26.199219 0.0625 26.375 C 0.0820313 26.417969 0.101563 26.460938 0.125 26.5 C 0.25 26.816406 1 28.875 1 32.6875 C 1 34.65625 0.746094 35.894531 0.53125 36.59375 C 0.421875 36.945313 0.34375 37.164063 0.28125 37.28125 C 0.21875 37.398438 0.21875 37.375 0.21875 37.375 C -0.125 37.804688 -0.0585938 38.4375 0.375 38.78125 L 12.25 48.65625 C 12.277344 48.691406 12.308594 48.722656 12.34375 48.75 L 12.375 48.78125 C 12.386719 48.792969 12.394531 48.800781 12.40625 48.8125 C 12.425781 48.824219 12.449219 48.835938 12.46875 48.84375 C 12.480469 48.855469 12.488281 48.863281 12.5 48.875 C 12.511719 48.875 12.519531 48.875 12.53125 48.875 C 12.550781 48.886719 12.574219 48.898438 12.59375 48.90625 C 12.605469 48.917969 12.613281 48.925781 12.625 48.9375 C 12.644531 48.9375 12.667969 48.9375 12.6875 48.9375 C 12.699219 48.949219 12.707031 48.957031 12.71875 48.96875 C 12.738281 48.96875 12.761719 48.96875 12.78125 48.96875 C 12.792969 48.980469 12.800781 48.988281 12.8125 49 C 12.832031 49 12.855469 49 12.875 49 C 12.894531 49 12.917969 49 12.9375 49 C 12.949219 49 12.957031 49 12.96875 49 C 12.988281 49 13.011719 49 13.03125 49 L 48 49 C 48.386719 49.003906 48.738281 48.785156 48.90625 48.4375 C 48.90625 48.4375 50 46.070313 50 42 C 50 38.945313 49.371094 36.855469 49.0625 36 C 49.371094 35.144531 50 33.054688 50 30 C 50 26.945313 49.371094 24.855469 49.0625 24 C 49.371094 23.144531 50 21.054688 50 18 C 50 14.515625 49.230469 12.382813 49 11.8125 C 48.980469 11.726563 48.949219 11.640625 48.90625 11.5625 C 48.894531 11.550781 48.886719 11.542969 48.875 11.53125 C 48.875 11.519531 48.875 11.511719 48.875 11.5 C 48.867188 11.480469 48.855469 11.457031 48.84375 11.4375 C 48.832031 11.425781 48.824219 11.417969 48.8125 11.40625 C 48.804688 11.386719 48.792969 11.363281 48.78125 11.34375 C 48.769531 11.332031 48.761719 11.324219 48.75 11.3125 C 48.730469 11.300781 48.707031 11.289063 48.6875 11.28125 C 48.675781 11.269531 48.667969 11.261719 48.65625 11.25 C 48.644531 11.238281 48.636719 11.230469 48.625 11.21875 C 48.613281 11.207031 48.605469 11.199219 48.59375 11.1875 C 48.5625 11.164063 48.53125 11.144531 48.5 11.125 L 34.59375 1.1875 C 34.421875 1.0625 34.210938 0.996094 34 1 L 1.0625 1 C 1.042969 1 1.019531 1 1 1 C 0.988281 1 0.980469 1 0.96875 1 C 0.949219 1 0.925781 1 0.90625 1 C 0.875 1 0.84375 1 0.8125 1 C 0.78125 1 0.75 1 0.71875 1 Z M 3.75 3 L 14.65625 3 L 25.84375 11 L 13.375 11 Z M 18.125 3 L 20.65625 3 L 32.71875 11.625 C 33.558594 12.246094 34 13.109375 34 14.09375 L 34 20 L 33 20 L 33 19 C 33.007813 18.691406 32.871094 18.398438 32.632813 18.203125 C 32.398438 18.007813 32.082031 17.933594 31.78125 18 C 31.316406 18.105469 30.988281 18.523438 31 19 L 31 20 L 30 20 L 30 14.09375 C 30 13.015625 29.636719 11.984375 29 11.125 L 29 11 L 28.90625 11 C 28.613281 10.628906 28.273438 10.289063 27.875 10 Z M 24.125 3 L 33.65625 3 L 44.875 11 L 35 11 L 35 11.125 C 34.6875 10.703125 34.316406 10.320313 33.875 10 Z M 2.59375 4.625 L 12.1875 12.625 C 12.375 13.0625 13 14.789063 13 18 C 13 19.976563 12.769531 21.390625 12.53125 22.3125 L 2.25 13.71875 C 2.324219 13.542969 2.394531 13.425781 2.46875 13.1875 C 2.753906 12.261719 3 10.820313 3 8.6875 C 3 6.945313 2.792969 5.761719 2.59375 4.625 Z M 14.34375 13 L 27.78125 13 C 27.914063 13.34375 28 13.707031 28 14.09375 L 28 20 L 27 20 C 26.96875 20 26.9375 20 26.90625 20 C 26.390625 20.046875 25.996094 20.480469 26 21 L 26 23 L 14.34375 23 C 14.652344 21.914063 15 20.34375 15 18 C 15 15.65625 14.652344 14.085938 14.34375 13 Z M 35.875 13 L 47.28125 13 C 47.515625 13.601563 48 15.03125 48 18 C 48 20.96875 47.515625 22.398438 47.28125 23 L 38 23 L 38 21 C 38 20.449219 37.550781 20 37 20 L 36 20 L 36 14.09375 C 36 13.722656 35.953125 13.355469 35.875 13 Z M 18.90625 13.96875 C 18.875 13.976563 18.84375 13.988281 18.8125 14 C 18.511719 14.050781 18.25 14.238281 18.105469 14.507813 C 17.960938 14.773438 17.945313 15.09375 18.0625 15.375 C 18.0625 15.375 18.40625 16.132813 18.40625 18 C 18.40625 19.867188 18.0625 20.625 18.0625 20.625 C 17.855469 21.144531 18.105469 21.730469 18.625 21.9375 C 19.144531 22.144531 19.730469 21.894531 19.9375 21.375 C 19.9375 21.375 20.40625 20.132813 20.40625 18 C 20.40625 15.867188 19.9375 14.625 19.9375 14.625 C 19.792969 14.230469 19.417969 13.96875 19 13.96875 C 18.96875 13.96875 18.9375 13.96875 18.90625 13.96875 Z M 32 14 C 31.449219 14 31 14.449219 31 15 C 31 15.550781 31.449219 16 32 16 C 32.550781 16 33 15.550781 33 15 C 33 14.449219 32.550781 14 32 14 Z M 2.6875 16.71875 L 12.15625 24.59375 C 12.316406 24.957031 13 26.6875 13 30 C 13 31.949219 12.769531 33.359375 12.53125 34.28125 L 2.25 25.71875 C 2.324219 25.542969 2.394531 25.425781 2.46875 25.1875 C 2.753906 24.261719 3 22.820313 3 20.6875 C 3 19.117188 2.859375 17.796875 2.6875 16.71875 Z M 28 22 L 31 22 L 31 25 C 30.996094 25.359375 31.183594 25.695313 31.496094 25.878906 C 31.808594 26.058594 32.191406 26.058594 32.503906 25.878906 C 32.816406 25.695313 33.003906 25.359375 33 25 L 33 22 L 36 22 L 36 29 L 35.21875 29 C 35.117188 28.972656 35.011719 28.960938 34.90625 28.96875 C 34.875 28.976563 34.84375 28.988281 34.8125 29 L 29.1875 29 C 29.054688 28.972656 28.914063 28.972656 28.78125 29 L 28 29 Z M 14.34375 25 L 26 25 L 26 30 C 26 30.550781 26.449219 31 27 31 L 28 31 L 28 35 L 14.34375 35 C 14.652344 33.914063 15 32.34375 15 30 C 15 27.65625 14.652344 26.085938 14.34375 25 Z M 38 25 L 47.28125 25 C 47.515625 25.601563 48 27.03125 48 30 C 48 32.96875 47.515625 34.398438 47.28125 35 L 36 35 L 36 31 L 37 31 C 37.550781 31 38 30.550781 38 30 Z M 18.90625 25.96875 C 18.875 25.976563 18.84375 25.988281 18.8125 26 C 18.511719 26.050781 18.25 26.238281 18.105469 26.507813 C 17.960938 26.773438 17.945313 27.09375 18.0625 27.375 C 18.0625 27.375 18.40625 28.132813 18.40625 30 C 18.40625 31.867188 18.0625 32.625 18.0625 32.625 C 17.855469 33.144531 18.105469 33.730469 18.625 33.9375 C 19.144531 34.144531 19.730469 33.894531 19.9375 33.375 C 19.9375 33.375 20.40625 32.132813 20.40625 30 C 20.40625 27.867188 19.9375 26.625 19.9375 26.625 C 19.792969 26.230469 19.417969 25.96875 19 25.96875 C 18.96875 25.96875 18.9375 25.96875 18.90625 25.96875 Z M 2.6875 28.71875 L 12.1875 36.625 C 12.375 37.0625 13 38.789063 13 42 C 13 43.976563 12.769531 45.390625 12.53125 46.3125 L 2.25 37.71875 C 2.324219 37.542969 2.394531 37.425781 2.46875 37.1875 C 2.753906 36.261719 3 34.820313 3 32.6875 C 3 31.117188 2.859375 29.796875 2.6875 28.71875 Z M 30 31 L 34 31 L 34 45 C 34 45.921875 33.679688 46.355469 33.34375 46.65625 C 33.09375 46.882813 32.910156 46.964844 32.8125 47 L 29.5 47 C 29.78125 46.449219 30 45.789063 30 45 Z M 32 33 C 31.449219 33 31 33.449219 31 34 C 31 34.550781 31.449219 35 32 35 C 32.550781 35 33 34.550781 33 34 C 33 33.449219 32.550781 33 32 33 Z M 14.34375 37 L 28 37 L 28 45 C 28 45.921875 27.679688 46.355469 27.34375 46.65625 C 27.09375 46.882813 26.910156 46.964844 26.8125 47 L 14.34375 47 C 14.652344 45.914063 15 44.34375 15 42 C 15 39.65625 14.652344 38.085938 14.34375 37 Z M 36 37 L 47.28125 37 C 47.515625 37.601563 48 39.03125 48 42 C 48 44.96875 47.515625 46.398438 47.28125 47 L 35.5 47 C 35.78125 46.449219 36 45.789063 36 45 Z M 18.90625 37.96875 C 18.875 37.976563 18.84375 37.988281 18.8125 38 C 18.511719 38.050781 18.25 38.238281 18.105469 38.507813 C 17.960938 38.773438 17.945313 39.09375 18.0625 39.375 C 18.0625 39.375 18.40625 40.132813 18.40625 42 C 18.40625 43.867188 18.0625 44.625 18.0625 44.625 C 17.855469 45.144531 18.105469 45.730469 18.625 45.9375 C 19.144531 46.144531 19.730469 45.894531 19.9375 45.375 C 19.9375 45.375 20.40625 44.132813 20.40625 42 C 20.40625 39.867188 19.9375 38.625 19.9375 38.625 C 19.792969 38.230469 19.417969 37.96875 19 37.96875 C 18.96875 37.96875 18.9375 37.96875 18.90625 37.96875 Z M 32 38 C 31.449219 38 31 38.449219 31 39 C 31 39.550781 31.449219 40 32 40 C 32.550781 40 33 39.550781 33 39 C 33 38.449219 32.550781 38 32 38 Z"/></svg>