<svg width="350" height="350" xmlns="http://www.w3.org/2000/svg">
 <!-- Created with SVG Editor - http://github.com/mzalive/SVG Editor/ -->

 <g>
  <title>background</title>
  <rect id="canvas_background" fill="none" x="-1" y="-1" width="352" height="352"/>
 </g>
 <g>
  <title>Layer 1</title>
  <path stroke="#000" id="svg_2" d="m255.71994,46.010698c-21.982445,-21.352214 -45.691722,-38.456674 -65.140639,-40.788527c-1.058787,-0.151255 -2.155389,-0.239488 -3.315013,-0.264697l-127.999844,0c-2.041947,0 -4.058685,0.794091 -5.495611,2.26883c-1.424321,1.436926 -2.26883,3.453664 -2.26883,5.508216l0,324.568782c0,2.041947 0.794091,3.995662 2.26883,5.483007c1.47474,1.462135 3.41585,2.256226 5.495611,2.256226l231.471111,0c2.041947,0 3.995662,-0.781486 5.470402,-2.256226c1.47474,-1.47474 2.29404,-3.428455 2.29404,-5.483007l0,-215.980042c-0.453766,-25.070575 -20.091753,-52.40998 -42.780056,-75.312562zm27.225964,283.490348l-215.942228,0l0,-309.039899l120.273216,0l0,0.025209c5.243519,-0.315115 9.768575,4.865381 13.234844,16.713717c3.151153,11.281129 3.945244,25.990712 3.932639,36.187844c0.025209,7.474535 -0.340325,12.491171 -0.340325,12.491171l-0.617626,8.218208l8.268626,0.088232c0.037814,0 19.108593,0.226883 37.813839,4.474638c17.974178,3.882221 32.028321,11.621453 33.339201,20.381659c0.050418,0.781486 0.063023,1.562972 0.050418,2.29404l0,208.165182l-0.012605,0z" stroke-opacity="null" stroke-width="0" fill="#000000"/>
 </g>
</svg>