<svg width="350" height="350" xmlns="http://www.w3.org/2000/svg">
 <!-- Created with SVG Editor - http://github.com/mzalive/SVG Editor/ -->

 <g>
  <title>background</title>
  <rect height="352" width="352" y="-1" x="-1" fill="none" id="canvas_background"/>
 </g>
 <g>
  <title>Layer 1</title>
  <path d="m255.71994,46.0107c-21.982437,-21.352221 -45.691727,-38.45668 -65.14064,-40.78853c-1.058792,-0.15126 -2.155396,-0.23949 -3.315002,-0.2647l-127.999859,0c-2.04195,0 -4.058689,0.79409 -5.495609,2.26883c-1.42432,1.43693 -2.268829,3.45367 -2.268829,5.50822l0,324.568794c0,2.041931 0.79409,3.995667 2.268829,5.483002c1.474739,1.462128 3.415852,2.256226 5.495609,2.256226l231.471127,0c2.041931,0 3.995667,-0.781494 5.470398,-2.256226c1.474731,-1.474731 2.294037,-3.428467 2.294037,-5.483002l0,-215.980057c-0.453766,-25.070564 -20.091766,-52.409981 -42.78006,-75.312557zm27.225952,283.490337l-215.942223,0l0,-309.039867l120.273216,0l0,0.025209c5.24353,-0.315119 9.76857,4.865381 13.234848,16.713709c3.151154,11.281132 3.945251,25.990711 3.932632,36.187851c0.025208,7.474533 -0.340317,12.491173 -0.340317,12.491173l-0.61763,8.218201l8.268631,0.088234c0.037811,0 19.108597,0.226883 37.813843,4.474632c17.974167,3.882233 32.028305,11.62146 33.339188,20.38166c0.050415,0.781494 0.063019,1.562973 0.050415,2.294037l0,208.165192l-0.012604,0l0,-0.000031z" stroke-width="0" stroke-opacity="null" stroke="#000" fill="#000000" id="svg_2"/>
  <path d="m85.982544,173.271301l0,0l0,0l0,0zm0.011559,0l42.380867,42.38089l-42.392426,42.380829l15.587608,15.599243l57.980095,-57.980072l-57.980095,-57.980057l-15.57605,15.599167zm75.102516,99.308136l105.885956,0l0,-22.030991l-105.885956,0l0,22.030991zm31.836121,-45.90036l74.049835,0l0,-22.030792l-74.049835,0l0,22.030792zm-31.836121,-67.931l0,22.030884l105.885956,0l0,-22.030884l-105.885956,0z" stroke-width="0" stroke-opacity="null" stroke="#000" fill="#000000" id="svg_14"/>
 </g>
</svg>