<svg width="350" height="350" xmlns="http://www.w3.org/2000/svg">
 <!-- Created with SVG Editor - http://github.com/mzalive/SVG Editor/ -->

 <g>
  <title>background</title>
  <rect height="352" width="352" y="-1" x="-1" fill="none" id="canvas_background"/>
 </g>
 <g>
  <title>Layer 1</title>
  <path d="m174.976837,51.249611c12.912506,0.016918 25.246765,2.251522 36.929092,5.986954l-9.244949,15.990356l65.625549,0l-16.410248,-28.421425l-16.398819,-28.412079l-8.632355,14.970665c-16.177841,-5.914873 -33.617462,-9.225155 -51.85524,-9.225155c-83.947548,0 -151.989868,68.048283 -151.989868,151.995457c0,34.839737 11.849804,66.8517 31.570351,92.499954l23.110382,-17.746124c-15.9496,-20.725266 -25.538651,-46.590637 -25.59053,-74.746475c0.115242,-67.869743 55.026367,-122.788048 122.886635,-122.892128l0,0zm120.436188,30.416702l-23.110352,17.753014c15.945557,20.71801 25.534546,46.566803 25.579376,74.730026c-0.117218,67.871292 -55.026016,122.780884 -122.892181,122.892212c-12.026077,-0.015015 -23.532272,-1.970886 -34.499512,-5.240601l8.699219,-15.044739l-65.625877,0l16.398918,28.404846l16.410179,28.445526l9.148956,-15.876801c15.516289,5.400085 32.123756,8.414734 49.468117,8.422363c83.96048,-0.014893 151.98996,-68.062927 152.010132,-152.010422c-0.020172,-34.841217 -11.877747,-66.844063 -31.586975,-92.475426l0,0z" stroke-width="11" stroke-opacity="null" stroke="#000" fill="#000000" id="svg_1"/>
 </g>
</svg>