<svg width="350" height="350" xmlns="http://www.w3.org/2000/svg">
 <!-- Created with SVG Editor - http://github.com/mzalive/SVG Editor/ -->

 <g>
  <title>background</title>
  <rect height="352" width="352" y="-1" x="-1" fill="none" id="canvas_background"/>
 </g>
 <g>
  <title>Layer 1</title>
  <path d="m291.585388,133.6409c0.242004,-2.564301 0.382538,-5.168549 0.382538,-7.78318c0,-45.49865 -36.86174,-82.370003 -82.369446,-82.370003c-35.293015,0 -65.336227,22.251862 -77.038788,53.492645c-7.763794,-8.516891 -18.845184,-13.956116 -31.271095,-13.956116c-23.428986,0 -42.432232,18.993317 -42.432232,42.420982c0,2.766045 0.301788,5.47007 0.824715,8.074791c-31.250227,5.158081 -55.181034,32.104614 -55.181034,64.823013c0,36.399338 29.501335,65.890121 65.900093,65.890121l44.863068,0l-9.330132,-9.320709c-4.967079,-4.968201 -7.701462,-11.582977 -7.701462,-18.622131c0,-7.018539 2.734383,-13.634384 7.701462,-18.601593l7.339157,-7.339523c5.26902,-5.259628 12.348442,-8.274948 19.386276,-8.274948c0.343414,0 0.705139,0 1.045853,0.019348l0,-6.223511c0,-14.548676 11.845703,-26.384644 26.363846,-26.384644l43.036026,0c14.539001,0 26.363617,11.835968 26.363617,26.384644l0,6.223511c0.36171,-0.019348 0.702469,-0.019348 1.064194,-0.019348c7.019928,0 14.096725,3.01532 19.365067,8.294708l7.360458,7.279846c10.277039,10.285721 10.277039,27.017883 0,37.263641l-9.309189,9.320709l31.671616,0c36.398865,0 65.879944,-29.490784 65.879944,-65.890121c0.020813,-32.306259 -23.24707,-59.061356 -53.914551,-64.702133zm-43.657822,93.338806l-7.318634,-7.31987c-5.148666,-5.12825 -12.709732,-5.932175 -16.812973,-1.800339c-4.123459,4.11319 -7.500916,1.548981 -7.500916,-5.690186l0,-16.320023c0,-7.249771 -5.931686,-13.182053 -13.172607,-13.182053l-43.033417,0c-7.240799,0 -13.173111,5.932281 -13.173111,13.182053l0,16.320023c0,7.239166 -3.376907,9.803375 -7.50087,5.690186c-4.120987,-4.131836 -11.681816,-3.327911 -16.810051,1.800339l-7.341782,7.31987c-5.128525,5.128296 -5.128525,13.493164 0,18.620911l57.030556,57.081665c2.555435,2.555176 5.953156,3.830017 9.31189,3.830017s6.756866,-1.274841 9.329834,-3.830017l57.012894,-57.081665c5.12854,-5.11734 5.12854,-13.492615 -0.020813,-18.620911z" stroke-opacity="null" stroke="#000" fill="#000000" id="svg_1"/>
 </g>
</svg>