<svg width="122.88" height="122.88" xmlns="http://www.w3.org/2000/svg" xml:space="preserve" version="1.1">

 <g>
  <title>Layer 1</title>
  <g id="svg_1">
   <path fill="#c1c6ca" id="svg_2" clip-rule="evenodd" fill-rule="evenodd" d="m61.44,0c33.93,0 61.44,27.51 61.44,61.44c0,33.93 -27.51,61.44 -61.44,61.44c-33.93,0 -61.44,-27.51 -61.44,-61.44c0,-33.93 27.51,-61.44 61.44,-61.44l0,0zm0,56.65c2.65,0 4.79,2.15 4.79,4.79c0,2.64 -2.14,4.79 -4.79,4.79c-2.64,0 -4.79,-2.14 -4.79,-4.79c0,-2.64 2.15,-4.79 4.79,-4.79l0,0zm0,-14.66c10.74,0 19.45,8.71 19.45,19.45c0,10.74 -8.71,19.45 -19.45,19.45c-10.74,0 -19.44,-8.71 -19.44,-19.45c0,-10.74 8.7,-19.45 19.44,-19.45l0,0l0,0zm-47.85,7.96c3.21,-8.59 8.3,-16.25 14.77,-22.48c6.46,-6.22 14.3,-11.03 23,-13.91l1.56,4.72c-8,2.65 -15.19,7.06 -21.12,12.77c-5.95,5.73 -10.62,12.76 -13.56,20.63l-4.65,-1.73l0,0zm15.53,3.63c2.01,-5.39 5.21,-10.21 9.27,-14.12c4.06,-3.91 8.98,-6.93 14.45,-8.73l1.55,4.72c-4.76,1.58 -9.03,4.2 -12.56,7.59c-3.54,3.41 -6.32,7.59 -8.07,12.27l-4.64,-1.73l0,0l0,0zm65.16,14.96c-2.01,5.39 -5.21,10.21 -9.27,14.12c-4.06,3.91 -8.98,6.93 -14.45,8.73l-1.55,-4.72c4.76,-1.58 9.04,-4.19 12.56,-7.59c3.54,-3.41 6.32,-7.59 8.07,-12.27l4.64,1.73l0,0l0,0zm15.53,3.63c-3.21,8.58 -8.3,16.24 -14.77,22.48c-6.46,6.23 -14.3,11.03 -23,13.91l-1.56,-4.72c8,-2.65 15.19,-7.06 21.12,-12.77c5.95,-5.73 10.62,-12.76 13.56,-20.63l4.65,1.73l0,0z" class="st0"/>
  </g>
 </g>
</svg>